<svg width="48" height="48" viewBox="0 0 48 48" fill="none" xmlns="http://www.w3.org/2000/svg">
<circle cx="24" cy="24" r="20" fill="white"/>
<path fill-rule="evenodd" clip-rule="evenodd" d="M29.2805 19.5983C31.01 20.834 33.129 21.5612 35.4175 21.5612V17.1596C34.9843 17.1598 34.5524 17.1146 34.1287 17.0248V20.4895C31.8404 20.4895 29.7217 19.7624 27.9916 18.5267V27.5089C27.9916 32.0023 24.3472 35.6446 19.8518 35.6446C18.1745 35.6446 16.6155 35.1378 15.3203 34.2685C16.7985 35.7791 18.8598 36.7163 21.1403 36.7163C25.6361 36.7163 29.2806 33.0739 29.2806 28.5804V19.5983H29.2805ZM30.8703 15.1577C29.9864 14.1926 29.4061 12.9452 29.2805 11.5661V11H28.0591C28.3665 12.7527 29.4151 14.2501 30.8703 15.1577V15.1577ZM18.1636 30.8206C17.6698 30.1734 17.4029 29.3816 17.4041 28.5676C17.4041 26.5124 19.0711 24.8462 21.1277 24.8462C21.5109 24.8459 21.8918 24.9047 22.2572 25.0205V20.5206C21.8303 20.4622 21.3995 20.4374 20.9688 20.4465V23.949C20.6033 23.8332 20.2222 23.7744 19.8388 23.7747C17.7823 23.7747 16.1154 25.4409 16.1154 27.4962C16.1154 28.9494 16.9486 30.2077 18.1636 30.8206V30.8206Z" fill="#E1DFD7"/>
<path fill-rule="evenodd" clip-rule="evenodd" d="M27.9914 18.5267C29.7214 19.7624 31.8401 20.4895 34.1284 20.4895V17.0248C32.8511 16.753 31.7203 16.0857 30.8701 15.1577C29.4148 14.2501 28.3662 12.7527 28.0588 11H24.8508V28.5802C24.8435 30.6297 23.1794 32.2891 21.1272 32.2891C19.9179 32.2891 18.8435 31.713 18.1632 30.8206C16.9482 30.2077 16.115 28.9494 16.115 27.4962C16.115 25.4409 17.7818 23.7747 19.8384 23.7747C20.2324 23.7747 20.6122 23.836 20.9684 23.949V20.4465C16.5519 20.5377 13 24.1445 13 28.5804C13 30.7947 13.8845 32.8021 15.32 34.2687C16.6152 35.1379 18.1742 35.6448 19.8515 35.6448C24.347 35.6448 27.9914 32.0023 27.9914 27.509V18.5267Z" fill="#E1DFD7"/>
</svg>
