<svg width="175" height="175" viewBox="0 0 175 175" fill="none" xmlns="http://www.w3.org/2000/svg">
<circle cx="87.5" cy="87.5" r="87.5" fill="white"/>
<mask id="mask0_181_1329" style="mask-type:alpha" maskUnits="userSpaceOnUse" x="0" y="0" width="175" height="175">
<circle cx="87.5" cy="87.5" r="87.5" fill="white"/>
</mask>
<g mask="url(#mask0_181_1329)">
<path d="M87.7121 128.781C89.9818 128.781 91.8217 126.941 91.8217 124.671C91.8217 122.401 89.9818 120.562 87.7121 120.562C85.4425 120.562 83.6025 122.401 83.6025 124.671C83.6025 126.941 85.4425 128.781 87.7121 128.781Z" fill="#0078D9"/>
<path d="M106.89 37H68.5342C64.4247 37 61 40.4247 61 44.5342V129.466C61 133.575 64.4247 137 68.5342 137H106.89C111 137 114.425 133.575 114.425 129.466V44.5342C114.425 40.4247 111 37 106.89 37ZM110.315 129.466C110.315 131.384 108.808 132.89 106.89 132.89H68.5342C66.6164 132.89 65.1096 131.384 65.1096 129.466V116.452H110.315V129.466ZM110.315 112.342H65.1096V56.1781H110.315V112.342ZM110.315 52.0685H65.1096V44.5342C65.1096 42.6164 66.6164 41.1096 68.5342 41.1096H106.89C108.808 41.1096 110.315 42.6164 110.315 44.5342V52.0685Z" fill="#0078D9"/>
<path d="M91.8218 44.5342H83.6026C82.5068 44.5342 81.5479 45.4931 81.5479 46.589C81.5479 47.6849 82.5068 48.6438 83.6026 48.6438H91.8218C92.9177 48.6438 93.8766 47.6849 93.8766 46.589C93.8766 45.4931 92.9177 44.5342 91.8218 44.5342Z" fill="#0078D9"/>
<path d="M98.6713 93.1643C98.6713 87.4109 94.0137 84.9451 89.7672 83.0273V70.1506C92.5069 70.6985 94.2877 72.0684 94.8357 72.8903C95.5206 73.8492 96.7535 73.9862 97.7124 73.4383C98.6713 72.7533 98.8083 71.5205 98.2603 70.5616C96.8905 68.6438 94.0137 66.589 89.7672 66.041V60.9725C89.7672 59.8766 88.8083 58.9177 87.7124 58.9177C86.6165 58.9177 85.6576 59.8766 85.6576 60.9725V65.904C80.5891 66.7259 76.7535 70.5616 76.7535 75.3561C76.7535 81.2465 81.411 83.8492 85.6576 85.6301V98.3698C82.7809 97.8218 81.137 96.452 80.4521 95.6301C79.7672 94.6711 78.5343 94.3972 77.5754 95.0821C76.6165 95.767 76.3425 96.9999 77.0274 97.9588C78.2603 99.8766 81.274 102.068 85.5206 102.616V107.548C85.5206 108.644 86.4795 109.603 87.5754 109.603C88.6713 109.603 89.6302 108.644 89.6302 107.548V102.616C94.8357 101.794 98.6713 97.9588 98.6713 93.1643ZM80.8631 75.3561C80.8631 73.1643 82.6439 70.8355 85.6576 70.1506V81.1095C82.6439 79.6027 80.8631 78.0958 80.8631 75.3561ZM89.7672 98.3698V87.5479C92.7809 89.0547 94.5617 90.4246 94.5617 93.1643C94.5617 95.3561 92.7809 97.6849 89.7672 98.3698Z" fill="#0078D9"/>
</g>
</svg>
