<svg width="175" height="175" viewBox="0 0 175 175" fill="none" xmlns="http://www.w3.org/2000/svg">
<circle cx="87.5" cy="87.5" r="87.5" fill="white"/>
<mask id="mask0_181_1347" style="mask-type:alpha" maskUnits="userSpaceOnUse" x="0" y="0" width="175" height="175">
<circle cx="87.5" cy="87.5" r="87.5" fill="white"/>
</mask>
<g mask="url(#mask0_181_1347)">
<path fill-rule="evenodd" clip-rule="evenodd" d="M59.035 51.2391L53.1265 47.9561C52.5638 47.6425 52.2266 47.0392 52.2571 46.3968C52.2876 45.7544 52.6791 45.1832 53.2689 44.9239L68.6909 38.1443C69.1282 37.9511 69.6299 37.9511 70.0672 38.1494L85.1535 44.929C85.7383 45.1934 86.1247 45.7629 86.1518 46.4036C86.1528 46.4165 86.1507 46.4295 86.1486 46.4424C86.1468 46.4532 86.1451 46.464 86.1451 46.4748H86.1535V60.034H87.8484V63.4238H81.0688V60.034H82.7637V49.3561L79.3739 51.2391V61.7289C79.3739 62.6645 78.6146 63.4238 77.679 63.4238H60.7299C59.7943 63.4238 59.035 62.6645 59.035 61.7289V51.2391ZM75.9841 60.034V53.1222L70.0282 56.4306C69.7705 56.573 69.4875 56.6442 69.2044 56.6442C68.9214 56.6442 68.6383 56.573 68.3807 56.4306L62.4248 53.1222V60.034H75.9841ZM80.679 46.6341L69.3638 41.5494L57.7604 46.651L61.5536 48.7595L69.2044 53.0103L76.8553 48.7578L80.679 46.6341ZM69.3823 108.428L74.4667 98.2594L77.4985 99.7754L72.4141 109.944L69.3823 108.428ZM45.5881 136.913C45.8406 137.568 46.4694 138 47.1711 138H67.51C68.2744 138 68.9439 137.488 69.1456 136.751L74.2303 118.107C74.3693 117.596 74.2625 117.051 73.9422 116.632C73.6202 116.213 73.1236 115.966 72.5948 115.966H55.0982L48.744 100.081C48.5067 99.488 47.9559 99.0796 47.3203 99.0219C46.6694 98.9694 46.0711 99.2694 45.7322 99.8118L37.2576 113.371C36.9746 113.822 36.922 114.381 37.1136 114.878L45.5881 136.913ZM66.2151 134.61H49.5915L55.1389 119.356H70.3761L66.2151 134.61ZM46.8372 104.442L52.1355 117.69L47.1254 131.466L40.5813 114.452L46.8372 104.442ZM63.1033 99.356L56.3237 104.441C55.8542 104.793 55.5999 105.363 55.6525 105.949C55.705 106.534 56.0576 107.049 56.583 107.314L63.3626 110.703L64.8795 107.671L60.5524 105.509L65.1372 102.068L63.1033 99.356ZM83.7807 99.356L81.7468 102.068L86.3332 105.507L82.0061 107.67L83.523 110.702L90.3027 107.312C90.8281 107.049 91.1806 106.534 91.2332 105.947C91.2857 105.363 91.0315 104.792 90.562 104.439L83.7807 99.356ZM99.7135 68.368V75.2883C99.7135 76.0086 100.168 76.6493 100.847 76.8883C101.03 76.951 101.22 76.9832 101.408 76.9832C101.914 76.9832 102.403 76.7578 102.732 76.3476L109.002 68.5086H113.273C118.881 68.5086 123.442 63.9477 123.442 58.3392V56.6443H124.324L130.595 64.4832C130.922 64.8934 131.412 65.1188 131.917 65.1188C132.105 65.1188 132.295 65.0866 132.478 65.0239C133.157 64.7849 133.612 64.1443 133.612 63.4239V56.6443H137.001C137.937 56.6443 138.696 55.885 138.696 54.9494V39.6952C138.696 38.7596 137.937 38.0003 137.001 38.0003H114.968C114.032 38.0003 113.273 38.7596 113.273 39.6952V46.4748H101.408C95.8 46.4748 91.239 51.0358 91.239 56.6443V58.3392C91.239 63.3697 94.9101 67.5578 99.7135 68.368ZM116.663 47.0528V41.3901H135.307V53.2545H131.917C130.981 53.2545 130.222 54.0138 130.222 54.9494V58.5917L126.461 53.8901C126.139 53.4884 125.652 53.2545 125.137 53.2545H122.864C122.844 53.1964 122.819 53.1405 122.794 53.0845C122.776 53.0426 122.757 53.0007 122.741 52.9579C122.68 52.8002 122.615 52.6426 122.546 52.4884C122.461 52.3002 122.373 52.1155 122.278 51.9341C122.222 51.8274 122.163 51.7223 122.102 51.6189C121.981 51.407 121.859 51.2002 121.724 50.9986C121.707 50.9731 121.689 50.9488 121.671 50.9246L121.671 50.9245L121.67 50.924L121.67 50.9239C121.656 50.9048 121.642 50.8857 121.629 50.8664C120.932 49.8579 120.061 48.9867 119.052 48.2901C119.03 48.2748 119.008 48.2587 118.986 48.2426C118.964 48.2265 118.942 48.2104 118.92 48.1952C118.719 48.0613 118.51 47.9376 118.3 47.8172L118.234 47.78L118.234 47.7799L118.234 47.7798C118.151 47.733 118.069 47.6864 117.985 47.6409C117.803 47.546 117.619 47.4579 117.43 47.3731C117.276 47.3037 117.119 47.2392 116.961 47.1782C116.919 47.1616 116.879 47.1435 116.838 47.1255C116.78 47.0996 116.723 47.0738 116.663 47.0528ZM94.6288 56.6443C94.6288 52.9053 97.6695 49.8647 101.408 49.8647H113.273C113.739 49.8647 114.195 49.9121 114.634 50.0019C114.638 50.0028 114.642 50.0041 114.646 50.0053L114.651 50.0072C114.653 50.0078 114.655 50.0083 114.658 50.0087C115.054 50.0918 115.435 50.2155 115.803 50.3647C115.874 50.393 115.942 50.4246 116.009 50.456L116.061 50.4799C116.369 50.6206 116.666 50.7799 116.947 50.9613C116.966 50.9731 116.985 50.9848 117.004 50.9965C117.041 51.0198 117.079 51.0432 117.115 51.068C117.791 51.5358 118.376 52.1223 118.844 52.7969C118.869 52.833 118.892 52.8706 118.915 52.9082C118.927 52.9271 118.939 52.946 118.951 52.9646C119.134 53.246 119.293 53.5426 119.432 53.8511C119.444 53.8783 119.457 53.9051 119.469 53.9319L119.47 53.9322C119.497 53.9904 119.524 54.0484 119.547 54.1087C119.696 54.4765 119.82 54.8579 119.903 55.2545C119.904 55.2586 119.905 55.2624 119.907 55.2662L119.907 55.2663C119.908 55.2701 119.909 55.274 119.91 55.2782C120.005 55.7223 120.052 56.1782 120.052 56.6443V58.3392C120.052 62.0782 117.012 65.1188 113.273 65.1188H108.188C107.673 65.1188 107.186 65.3527 106.864 65.7544L103.103 70.4561V66.8137C103.103 65.8782 102.344 65.1188 101.408 65.1188C97.6695 65.1188 94.6288 62.0782 94.6288 58.3392V56.6443ZM99.7131 54.9492H103.103V58.339H99.7131V54.9492ZM109.883 54.9492H106.493V58.339H109.883V54.9492ZM113.273 54.9492H116.663V58.339H113.273V54.9492ZM125.137 44.7801H121.747V48.1699H125.137V44.7801ZM128.527 44.7801H131.916V48.1699H128.527V44.7801ZM125.137 114.271V138H128.527V114.271C128.527 110.532 125.486 107.492 121.747 107.492H119.856C119.469 105.641 118.471 103.976 117.039 102.759C118.04 101.892 118.913 100.864 119.63 99.7153C122.778 101.82 129.755 106.234 132.966 106.234C133.139 106.234 133.3 106.22 133.449 106.195C134.254 106.053 134.705 105.615 134.942 105.273C136.022 103.71 134.649 102.347 133.437 101.146C131.92 99.6424 129.628 97.3695 128.376 93.6035C127.402 90.6772 127.608 88.4446 127.789 86.4764L127.789 86.4713C127.998 84.2154 128.213 81.8832 126.415 79.5476C124.611 77.2018 121.323 75.5849 117.832 75.3256C114.8 75.1069 112.137 75.9306 110.335 77.6662C110.01 77.9798 109.723 78.3272 109.459 78.7018C109.405 78.6993 109.352 78.6953 109.299 78.6913L109.299 78.6913H109.299C109.211 78.6847 109.124 78.6781 109.035 78.6781C102.025 78.6781 96.3234 84.7611 96.3234 92.2374C96.3234 96.6068 98.2793 100.488 101.296 102.971C98.2505 105.168 96.3234 108.727 96.3234 112.576V117.661H84.4591C81.6557 117.661 79.3743 119.942 79.3743 122.746C79.3743 125.549 81.6557 127.83 84.4591 127.83H96.3234V138H99.7132V127.83H101.408C101.857 127.83 102.289 127.652 102.606 127.334L111.081 118.859C111.596 118.344 111.725 117.556 111.4 116.903L108.01 110.124C107.766 109.636 107.303 109.297 106.766 109.208C106.234 109.125 105.681 109.3 105.296 109.683L99.7132 115.264V112.576C99.7132 109.312 101.637 106.317 104.564 104.925C104.611 104.944 104.659 104.96 104.707 104.976L104.708 104.976L104.708 104.976C104.746 104.988 104.785 105.001 104.823 105.015C105.062 105.105 105.305 105.19 105.55 105.266C105.671 105.303 105.791 105.335 105.912 105.367L105.912 105.367L105.912 105.367L105.912 105.367L105.912 105.367L105.912 105.367L106.003 105.392C106.247 105.456 106.493 105.517 106.742 105.564C106.855 105.586 106.967 105.604 107.08 105.621L107.15 105.632L107.215 105.642L107.226 105.644C107.47 105.681 107.712 105.717 107.961 105.739C108.076 105.75 108.192 105.754 108.308 105.759L108.309 105.759L108.309 105.759L108.31 105.759L108.31 105.759C108.36 105.761 108.411 105.764 108.461 105.766C108.484 105.767 108.507 105.768 108.531 105.77L108.574 105.772C108.609 105.775 108.645 105.777 108.681 105.78L108.681 105.78L108.681 105.78C108.799 105.788 108.916 105.797 109.035 105.797C109.064 105.797 109.092 105.794 109.121 105.792C109.149 105.79 109.178 105.788 109.206 105.788C109.298 105.787 109.39 105.781 109.481 105.775L109.481 105.775L109.482 105.775C109.538 105.771 109.594 105.767 109.65 105.764L109.715 105.761H109.715C109.965 105.749 110.216 105.736 110.461 105.707C110.495 105.703 110.53 105.697 110.564 105.69C110.591 105.685 110.619 105.68 110.647 105.676C111.811 105.517 112.932 105.203 113.978 104.731C115.608 105.607 116.662 107.32 116.662 109.186V138H120.052V110.881H121.747C123.617 110.881 125.137 112.402 125.137 114.271ZM106.028 113.742L107.82 117.327L100.706 124.441H98.0183H84.4591C83.5252 124.441 82.7641 123.68 82.7641 122.746C82.7641 121.812 83.5252 121.051 84.4591 121.051H98.0183C98.0386 121.051 98.058 121.045 98.0774 121.04C98.0953 121.035 98.1132 121.03 98.1319 121.029C98.2776 121.019 98.4166 120.991 98.5556 120.944L98.5918 120.933L98.5919 120.933C98.6368 120.918 98.6806 120.905 98.7234 120.885C98.9031 120.803 99.0726 120.698 99.2166 120.554L106.028 113.742ZM113.449 79.5255C114.52 78.8815 115.976 78.5849 117.579 78.7052C120.1 78.8916 122.511 80.034 123.727 81.6137C124.671 82.8408 124.615 83.9543 124.411 86.1594L124.411 86.1663C124.209 88.3533 123.958 91.0734 125.157 94.6746C126.123 97.578 127.596 99.7373 128.961 101.342C126.889 100.305 124.161 98.7289 121.061 96.6051L121.115 96.4458C121.117 96.4407 121.13 96.395 121.144 96.3526C121.157 96.3068 121.172 96.2611 121.186 96.2153L121.186 96.214L121.187 96.2115L121.189 96.2077L121.189 96.2074L121.19 96.2041C121.191 96.2021 121.191 96.2006 121.191 96.2001C121.2 96.1708 121.206 96.142 121.212 96.1132C121.217 96.0886 121.221 96.064 121.228 96.039C121.332 95.6645 121.425 95.2865 121.496 94.9001C121.572 94.5204 121.622 94.1441 121.659 93.7662C121.671 93.6548 121.679 93.5424 121.687 93.4307L121.693 93.3424C121.699 93.2578 121.708 93.1734 121.717 93.0892C121.732 92.9526 121.747 92.8167 121.747 92.6814L121.739 92.4713C121.74 92.434 121.747 92.2746 121.747 92.2374C121.747 91.5916 121.689 90.9594 121.608 90.3374C121.589 90.1967 121.571 90.0577 121.549 89.9187C121.449 89.3086 121.322 88.7086 121.149 88.1289C121.14 88.0995 121.13 88.071 121.119 88.0428C121.11 88.0173 121.101 87.9919 121.093 87.9662C120.925 87.4272 120.722 86.9069 120.493 86.4001L120.468 86.3462L120.438 86.2775L120.438 86.2771L120.438 86.2767C120.404 86.2019 120.371 86.1269 120.335 86.0526C120.079 85.5238 119.798 85.0154 119.481 84.5289C119.448 84.4772 119.413 84.4281 119.377 84.3791L119.377 84.3788C119.348 84.3395 119.32 84.3001 119.293 84.2594C119.006 83.8425 118.7 83.4442 118.372 83.0662C118.339 83.0281 118.307 82.9895 118.275 82.9509L118.274 82.9503C118.229 82.8962 118.184 82.8422 118.137 82.7899C117.756 82.3713 117.349 81.9832 116.92 81.6204C116.855 81.5659 116.788 81.5135 116.721 81.4609L116.721 81.4607C116.686 81.4333 116.651 81.4059 116.617 81.3781C116.201 81.0476 115.771 80.7408 115.32 80.4645C115.297 80.4506 115.275 80.4357 115.253 80.4208C115.226 80.403 115.2 80.3853 115.172 80.3696C114.662 80.0679 114.127 79.8137 113.578 79.5883C113.555 79.5792 113.535 79.5682 113.515 79.5573L113.514 79.5572L113.501 79.5502C113.495 79.5468 113.488 79.5435 113.482 79.5402L113.471 79.5349C113.463 79.5315 113.456 79.5284 113.449 79.5255ZM109.035 82.0679C109.405 82.0679 109.767 82.0984 110.125 82.1442L110.134 82.1467L110.144 82.1493C111.303 82.3001 112.391 82.6815 113.372 83.2442C113.379 83.2484 113.386 83.2518 113.394 83.2552L113.405 83.2606L113.41 83.2632L113.415 83.2662C113.869 83.5289 114.295 83.8408 114.698 84.1781C114.719 84.1961 114.741 84.2134 114.763 84.2308C114.793 84.2544 114.823 84.2781 114.852 84.3035C115.23 84.634 115.579 84.9984 115.905 85.3865C115.961 85.4526 116.017 85.5187 116.071 85.5848C116.384 85.9781 116.669 86.3984 116.923 86.8425C116.955 86.8962 116.985 86.9508 117.015 87.005L117.047 87.0628C117.296 87.5221 117.517 88.0001 117.698 88.5001C117.722 88.5645 117.742 88.6306 117.764 88.695C117.942 89.2187 118.089 89.7577 118.186 90.3153C118.189 90.3341 118.192 90.3529 118.194 90.3716L118.195 90.3764C118.197 90.3967 118.2 90.417 118.203 90.4374C118.3 91.0255 118.357 91.6272 118.356 92.2424C118.354 92.2763 118.35 92.3509 118.349 92.417C118.344 92.6916 118.335 92.9628 118.311 93.2323L118.306 93.3035C118.272 93.6509 118.223 93.9916 118.159 94.3289L118.148 94.3829L118.148 94.383C118.086 94.6832 118.024 94.9807 117.922 95.3068C117.893 95.4029 117.861 95.4959 117.828 95.5889C117.811 95.6354 117.795 95.6819 117.779 95.7289C117.684 96.0085 117.581 96.2814 117.466 96.5492C116.561 98.6441 115.023 100.346 113.12 101.364C112.83 101.52 112.534 101.656 112.234 101.778C112.208 101.788 112.181 101.8 112.156 101.808C111.874 101.919 111.589 102.01 111.303 102.09C111.286 102.095 111.269 102.099 111.252 102.104L111.252 102.104L111.221 102.113C111.206 102.117 111.19 102.122 111.174 102.125C110.906 102.195 110.637 102.247 110.366 102.29C110.341 102.294 110.316 102.299 110.29 102.303C110.269 102.307 110.247 102.311 110.225 102.315C110.209 102.317 110.193 102.32 110.178 102.322C109.927 102.356 109.676 102.373 109.425 102.385C109.412 102.385 109.398 102.386 109.385 102.387L109.356 102.389L109.319 102.391C109.272 102.394 109.225 102.397 109.178 102.398C108.922 102.403 108.666 102.39 108.41 102.371C108.38 102.369 108.35 102.368 108.32 102.367L108.32 102.367C108.28 102.365 108.239 102.363 108.2 102.359C107.213 102.263 106.235 101.993 105.306 101.549H105.303C104.412 101.122 103.596 100.544 102.876 99.8492C104.832 98.739 106.169 96.6611 106.169 94.256H102.779C102.779 95.5441 101.978 96.6441 100.851 97.0967C100.125 95.6526 99.7132 93.9967 99.7132 92.2374C99.7132 86.6289 103.895 82.0679 109.035 82.0679ZM44.1814 93.9323H41.439C40.256 93.9323 39.178 93.3323 38.556 92.3255C37.9357 91.3187 37.8797 90.0865 38.4086 89.0272L41.4187 83.0052V83.0035L43.7814 78.2781V73.2815C41.8136 72.5798 40.3916 70.7154 40.3916 68.5087C40.3916 65.7053 42.6729 63.4239 45.4763 63.4239H52.2559C55.0593 63.4239 57.3407 65.7053 57.3407 68.5087C57.3407 70.7154 55.9186 72.5798 53.9509 73.2815V78.2781L56.3153 83.0018V83.0035L59.3254 89.0255C59.8542 90.0848 59.8 91.317 59.178 92.3238C58.5542 93.3323 57.4763 93.9323 56.2932 93.9323H53.5509H44.1814ZM47.1712 73.5934V78.6781C47.1712 78.9408 47.1102 79.2018 46.9916 79.4357L45.6763 82.0679H52.0559L50.739 79.4357C50.6221 79.2018 50.561 78.9408 50.561 78.6781V73.5934H47.1712ZM42.6662 88.0899C42.2831 88.8526 42.5899 89.4967 42.739 89.7391C42.8899 89.9797 43.3289 90.5425 44.1814 90.5425H53.5559C54.4051 90.5391 54.8441 89.9797 54.9932 89.7391C55.1407 89.4984 55.4475 88.8526 55.0661 88.0899L53.7509 85.4577H43.9814L42.6662 88.0899ZM52.2559 66.8137H45.4763C44.5424 66.8137 43.7814 67.5748 43.7814 68.5087C43.7814 69.4425 44.5424 70.2036 45.4763 70.2036H52.2559C53.1898 70.2036 53.9509 69.4425 53.9509 68.5087C53.9509 67.5748 53.1898 66.8137 52.2559 66.8137ZM70.8994 93.9322V90.5423H74.2892V87.1525H70.8994V83.7627H67.5096V87.1525H64.1198V90.5423H67.5096V93.9322H70.8994ZM81.0693 87.1526H89.5438V90.5424H81.0693V87.1526ZM82.2678 67.3107L79.8712 69.7073L82.9101 72.7462L79.8712 75.7852L82.2678 78.1818L85.3067 75.1428L88.3457 78.1818L90.7423 75.7852L87.7033 72.7462L90.7423 69.7073L88.3457 67.3107L85.3067 70.3496L82.2678 67.3107ZM65.8147 66.8138H69.2046V70.2036H65.8147V66.8138ZM69.2046 76.9835H65.8147V80.3733H69.2046V76.9835ZM62.4255 71.8984H72.5949V75.2882H62.4255V71.8984Z" fill="#0078D9"/>
</g>
</svg>
