<svg width="175" height="175" viewBox="0 0 175 175" fill="none" xmlns="http://www.w3.org/2000/svg">
<circle cx="87.5" cy="87.5" r="87.5" fill="white"/>
<mask id="mask0_181_1354" style="mask-type:alpha" maskUnits="userSpaceOnUse" x="0" y="0" width="175" height="175">
<circle cx="87.5" cy="87.5" r="87.5" fill="white"/>
</mask>
<g mask="url(#mask0_181_1354)">
<path fill-rule="evenodd" clip-rule="evenodd" d="M43.922 58.8417L87.2554 37.175C87.7238 36.9417 88.2771 36.9417 88.7471 37.175L132.081 58.8417L130.589 61.8234L88.0004 40.53L45.4137 61.8234L43.922 58.8417ZM118.678 58.81C119.397 59.13 119.795 59.9084 119.632 60.68C119.467 61.45 118.788 62 118 62H57.9998C57.2115 62 56.5332 61.45 56.3715 60.68C56.2082 59.9084 56.6048 59.13 57.3248 58.81L87.3249 45.4767C87.7565 45.285 88.2449 45.285 88.6782 45.4767L118.678 58.81ZM87.9999 48.825L65.8532 58.6667H110.147L87.9999 48.825ZM56.3334 85.3334V88.6667H61.3334H68H73.0001V85.3334H69.6667V73.6667H73.0001V70.3334H68H61.3334H56.3334V73.6667H59.6667V85.3334H56.3334ZM63 73.6667H66.3334V85.3334H63V73.6667ZM59.6667 65.3334H69.6667V68.6667H59.6667V65.3334ZM69.6667 90.3334H59.6667V93.6668H69.6667V90.3334ZM51.3334 100.333V97.0001H124.667V100.333H51.3334ZM119.667 73.6667V70.3334H114.667H108H103V73.6667H106.333V85.3334H103V88.6667H108H114.667H119.667V85.3334H116.333V73.6667H119.667ZM113 85.3334H109.667V73.6667H113V85.3334ZM106.333 65.3334H116.333V68.6667H106.333V65.3334ZM116.333 90.3334H106.333V93.6668H116.333V90.3334ZM44.6667 102H131.333V105.333H44.6667V102ZM118 115.333H111.867L102.402 108.57C100.783 107.42 98.5901 107.385 96.9368 108.483C95.7318 109.287 94.9584 110.573 94.8184 112.015C94.7001 113.208 95.0267 114.383 95.7234 115.332H94.6668C91.9317 115.332 89.5201 116.675 88.0001 118.717C86.4801 116.677 84.0684 115.333 81.3334 115.333H80.2784C80.9751 114.385 81.3017 113.21 81.1834 112.017C81.0417 110.575 80.2684 109.288 79.0651 108.485C77.4117 107.385 75.2167 107.422 73.5984 108.573L64.1334 115.333H58C57.0784 115.333 56.3334 116.078 56.3334 117V133.667C56.3334 134.588 57.0784 135.333 58 135.333H64.465L70.93 136.95C71.0617 136.983 71.1967 137 71.3334 137H81.3334C84.0684 137 86.4801 135.657 88.0001 133.615C89.5201 135.657 91.9317 137 94.6668 137H104.667C104.803 137 104.938 136.983 105.07 136.95L111.535 135.333H118C118.922 135.333 119.667 134.588 119.667 133.667V117C119.667 116.078 118.922 115.333 118 115.333ZM63 118.667V132H59.6667V118.667H63ZM81.3334 133.667H71.5384L66.3334 132.365V117.858L75.5334 111.287C76.0351 110.932 76.7084 110.922 77.2167 111.258C77.7234 111.597 77.8434 112.083 77.8684 112.343C77.8951 112.603 77.8734 113.105 77.4434 113.535L75.1567 115.822C74.6801 116.298 74.5367 117.015 74.7951 117.638C75.0501 118.262 75.6601 118.667 76.3334 118.667H81.3334C84.0901 118.667 86.3334 120.91 86.3334 123.667V128.667C86.3334 131.423 84.0901 133.667 81.3334 133.667ZM104.462 133.667H94.6668C91.9101 133.667 89.6667 131.423 89.6667 128.667V123.667C89.6667 120.91 91.9101 118.667 94.6668 118.667H99.6668C100.34 118.667 100.95 118.262 101.207 117.638C101.465 117.015 101.322 116.298 100.845 115.822L98.5584 113.535C98.1284 113.105 98.1068 112.603 98.1334 112.343C98.1584 112.083 98.2784 111.597 98.7851 111.258C99.2951 110.922 99.9701 110.933 100.467 111.285L109.667 117.858V132.365L104.462 133.667ZM113 132V118.667H116.333V132H113ZM91.3334 75.3334C91.3334 73.4951 89.8384 72 88.0001 72C86.4084 72 85.0717 73.1234 84.7451 74.6167L94.0684 82.3851C94.4467 82.7034 94.6667 83.1717 94.6667 83.6667C94.6667 86.7651 92.5351 89.3517 89.6667 90.0967V93.6667H86.3334V90.0967C83.4651 89.3517 81.3334 86.7651 81.3334 83.6667H84.6667C84.6667 85.5051 86.1617 87.0001 88.0001 87.0001C89.5917 87.0001 90.9284 85.8767 91.2551 84.3834L81.9317 76.6151C81.5534 76.2967 81.3334 75.8284 81.3334 75.3334C81.3334 72.2351 83.4651 69.6484 86.3334 68.9034V65.3334H89.6667V68.9034C92.5351 69.6484 94.6667 72.2351 94.6667 75.3334H91.3334ZM136.333 77.0001H119.667V80.3334H134.667V123.667H123V127H136.333C137.255 127 138 126.255 138 125.333V78.6667C138 77.7451 137.255 77.0001 136.333 77.0001ZM53 127H39.6667C38.745 127 38 126.255 38 125.333V78.6667C38 77.7451 38.745 77.0001 39.6667 77.0001H56.3334V80.3334H41.3333V123.667H53V127Z" fill="#0078D9"/>
</g>
</svg>
