<svg width="175" height="175" viewBox="0 0 175 175" fill="none" xmlns="http://www.w3.org/2000/svg">
<circle cx="87.5" cy="87.5" r="87.5" fill="white"/>
<mask id="mask0_181_1338" style="mask-type:alpha" maskUnits="userSpaceOnUse" x="0" y="0" width="175" height="175">
<circle cx="87.5" cy="87.5" r="87.5" fill="white"/>
</mask>
<g mask="url(#mask0_181_1338)">
<path fill-rule="evenodd" clip-rule="evenodd" d="M99.6667 45.3333V67H104.667C112.937 67 119.667 73.7283 119.667 82H116.333C116.333 75.5683 111.1 70.3333 104.667 70.3333H99.6667V128.667C99.6667 133.262 95.9283 137 91.3333 137H51.3333C46.7383 137 43 133.262 43 128.667V45.3333C43 40.7383 46.7383 37 51.3333 37H57.0633H85.6033H91.3333C95.9283 37 99.6667 40.7383 99.6667 45.3333ZM82.95 42.4033L83.4683 40.3333H59.1983L59.7167 42.405C59.9017 43.1467 60.5683 43.6667 61.3333 43.6667H81.3333C82.0983 43.6667 82.765 43.1467 82.95 42.4033ZM91.3333 133.667C94.09 133.667 96.3333 131.423 96.3333 128.667V70.3333H78V67H96.3333V45.3333C96.3333 42.5767 94.09 40.3333 91.3333 40.3333H86.9033L86.185 43.2133C85.6267 45.4417 83.6317 47 81.3333 47H61.3333C59.035 47 57.04 45.4417 56.4833 43.215L55.7633 40.3333H51.3333C48.5767 40.3333 46.3333 42.5767 46.3333 45.3333V128.667C46.3333 131.423 48.5767 133.667 51.3333 133.667H91.3333ZM72.9998 78.36C74.9348 77.67 76.3331 75.8367 76.3331 73.6667C76.3331 73.2233 76.1581 72.8 75.8448 72.4883L69.7715 66.415C70.0098 65.785 70.6198 65.3333 71.3331 65.3333C72.2515 65.3333 72.9998 66.08 72.9998 67H76.3331C76.3331 64.83 74.9348 62.9967 72.9998 62.3067V58.6667H69.6665V62.3067C67.7315 62.9967 66.3331 64.83 66.3331 67C66.3331 67.4433 66.5081 67.8667 66.8215 68.1783L72.8948 74.2517C72.6565 74.8817 72.0465 75.3333 71.3331 75.3333C70.4148 75.3333 69.6665 74.5867 69.6665 73.6667H66.3331C66.3331 75.8367 67.7315 77.67 69.6665 78.36V81.0567L53.8081 90.5717C53.1665 90.9567 52.8598 91.7233 53.0598 92.445C53.2598 93.1667 53.9165 93.6667 54.6665 93.6667H87.9998C88.7498 93.6667 89.4065 93.1667 89.6065 92.445C89.8065 91.7233 89.4998 90.9567 88.8581 90.5717L72.9998 81.0567V78.36ZM60.6831 90.3333L71.3331 83.9433L81.9831 90.3333H60.6831ZM117.799 85.3333C118.982 85.3333 125.087 85.6067 129.132 91L126.465 92.9983C123.307 88.7867 118.354 88.665 117.799 88.665C112.535 88.665 109.465 92.555 109.132 92.9983L106.465 91C107.175 90.0533 111.057 85.3333 117.799 85.3333ZM117.799 90.3333C113.04 90.3333 110.299 93.665 109.799 94.3333L112.465 96.3317C112.67 96.06 114.559 93.665 117.799 93.665C118.14 93.665 121.188 93.74 123.132 96.3317L125.799 94.3333C122.942 90.525 118.634 90.3333 117.799 90.3333ZM61.3333 95.3333H54.6667V98.6667H61.3333V95.3333ZM88 95.3333H81.3333V98.6667H88V95.3333ZM86.3333 100.333H83V107H86.3333V100.333ZM81.3333 108.667H88V112H81.3333V108.667ZM56.3333 100.333H59.6667V107H56.3333V100.333ZM61.3333 108.667H54.6667V112H61.3333V108.667ZM68 95.3333H74.6667V98.6667H68V95.3333ZM73 100.333H69.6667V107H73V100.333ZM68 108.667H74.6667V112H68V108.667ZM89.6667 113.667H53V117H89.6667V113.667ZM134.565 105.05C135.463 104.198 136.668 103.667 138 103.667C140.757 103.667 143 105.91 143 108.667V130.333C143 130.662 142.902 130.985 142.72 131.258L139.387 136.258C139.077 136.722 138.557 137 138 137H116.333C115.892 137 115.467 136.825 115.155 136.512L104.322 125.678C103.338 124.697 102.797 123.39 102.797 122C102.797 120.61 103.338 119.303 104.322 118.322C106.35 116.293 109.65 116.293 111.678 118.322L113 119.643V100.333C113 97.5767 115.243 95.3333 118 95.3333C120.757 95.3333 123 97.5767 123 100.333V103.912C123.467 103.767 123.952 103.667 124.465 103.667C125.75 103.667 126.912 104.167 127.798 104.967C128.685 104.168 129.847 103.667 131.132 103.667C132.463 103.667 133.668 104.198 134.565 105.05ZM137.108 133.667L139.667 129.828V108.667C139.667 107.747 138.918 107 138 107C137.082 107 136.333 107.747 136.333 108.667V115.333H136.132H133H132.798V108.667C132.798 107.747 132.05 107 131.132 107C130.213 107 129.465 107.747 129.465 108.667V115.333H126.132V108.667C126.132 107.747 125.383 107 124.465 107C123.822 107 123.278 107.378 123 107.913V115.333H122.798H119.667H119.465V108.667C119.465 108.203 119.548 107.763 119.667 107.338V100.333C119.667 99.4133 118.918 98.6667 118 98.6667C117.082 98.6667 116.333 99.4133 116.333 100.333V122C116.333 122.922 115.587 123.667 114.667 123.667H113C112.558 123.667 112.133 123.492 111.822 123.178L109.322 120.678C108.592 119.948 107.408 119.948 106.678 120.678C106.325 121.032 106.13 121.5 106.13 122C106.13 122.5 106.325 122.968 106.678 123.322L117.023 133.667H137.108Z" fill="#0078D9"/>
</g>
</svg>
