<svg width="259" height="39" viewBox="0 0 259 39" fill="none" xmlns="http://www.w3.org/2000/svg">
<g clip-path="url(#clip0_186_2565)">
<path d="M4.5261 16.5533V13.8418H9.53193C12.6189 13.8418 14.3292 14.7804 14.3292 16.449C14.3292 18.1176 12.6814 19.0562 9.74051 19.0562C6.77872 19.0562 4.58868 18.7434 4.5261 16.5533ZM0 27.1907H8.50991C8.32219 26.7944 4.5261 24.9589 4.5261 19.0562V18.7225C4.90154 20.2243 6.31986 22.0389 10.0325 22.0389C13.3697 22.0389 15.7892 19.3482 15.7892 16.0527C15.7892 12.8824 13.0986 10.5046 9.53193 10.5046H0C0.125146 10.9009 2.64892 12.7364 2.64892 18.6391V19.0562C2.64892 24.9589 0.125146 26.7944 0 27.1907Z" fill="#0078D9"/>
<path d="M13.9127 27.1907H21.2128C21.0668 26.8778 19.3148 25.8141 20.0448 22.8106C22.9649 22.2474 25.8849 22.2474 28.8259 22.8315C29.535 25.835 27.8038 26.8778 27.6578 27.1907H34.9372C34.8746 26.7944 32.622 25.1884 30.0356 19.8697L29.0553 17.8256C26.469 12.5069 29.2847 10.9009 29.4725 10.5046H19.3982C19.5859 10.9009 22.3809 12.5069 19.7945 17.8256L18.8142 19.8697C16.2279 25.1884 13.9753 26.7944 13.9127 27.1907ZM20.5871 21.1837C20.754 20.85 20.9417 20.4745 21.1503 20.0783L24.4249 14.1547L27.6996 20.0783C27.9081 20.4745 28.0959 20.85 28.2627 21.2046C25.6972 20.7666 23.1526 20.7666 20.5871 21.1837Z" fill="#0078D9"/>
<path d="M35.3602 27.1907H40.9292C42.6812 27.1907 43.1401 27.2741 44.8921 27.2741C49.5433 27.2741 53.0266 23.6658 53.0266 18.8477C53.0266 14.0504 49.6268 10.4629 45.1007 10.4629C43.3486 10.4629 42.6812 10.5046 40.9292 10.5046H35.3602C35.4853 10.9009 38.0091 12.7364 38.0091 18.6391V19.0562C38.0091 24.9589 35.4853 26.7944 35.3602 27.1907ZM39.8863 23.6449V14.0504C40.8666 13.9878 43.1401 13.967 45.1007 13.967C48.9802 13.967 51.1494 15.7816 51.1494 18.8477C51.1494 21.9346 48.9176 23.77 44.8921 23.77C43.7449 23.77 41.5549 23.7283 39.8863 23.6449Z" fill="#0078D9"/>
<path d="M54.0791 27.1907H59.648C61.4001 27.1907 61.859 27.2741 63.611 27.2741C68.2622 27.2741 71.7455 23.6658 71.7455 18.8477C71.7455 14.0504 68.3457 10.4629 63.8196 10.4629C62.0675 10.4629 61.4001 10.5046 59.648 10.5046H54.0791C54.2042 10.9009 56.728 12.7364 56.728 18.6391V19.0562C56.728 24.9589 54.2042 26.7944 54.0791 27.1907ZM58.6052 23.6449V14.0504C59.5855 13.9878 61.859 13.967 63.8196 13.967C67.6991 13.967 69.8683 15.7816 69.8683 18.8477C69.8683 21.9346 67.6365 23.77 63.611 23.77C62.4638 23.77 60.2738 23.7283 58.6052 23.6449Z" fill="#0078D9"/>
<path d="M72.798 27.1907H87.2106L87.8363 24.0829L88.3577 21.4549C87.9406 21.5174 85.6045 24.0621 79.7018 24.0621H77.3241V22.8732C77.3241 13.9044 81.1201 11.1095 81.3079 10.5046H72.798C72.9231 10.9009 75.4469 12.7364 75.4469 18.6391V19.0562C75.4469 24.9589 72.9231 26.7944 72.798 27.1907Z" fill="#0078D9"/>
<path d="M88.9911 27.1907H103.737L104.926 21.6843C104.509 21.726 102.131 24.2706 96.2287 24.2706H93.5172V19.5985H93.6632C97.793 19.5985 99.0862 21.6217 99.3574 21.726V15.9693C99.0862 16.0736 97.793 18.0968 93.6632 18.0968H93.5172V13.4247H95.3944C101.297 13.4247 103.675 15.9693 104.092 16.011L102.903 10.5046H88.9911C89.1163 10.9009 91.64 12.7364 91.64 18.6391V19.0562C91.64 24.9589 89.1163 26.7944 88.9911 27.1907Z" fill="#0078D9"/>
<path fill-rule="evenodd" clip-rule="evenodd" d="M245.626 11.1631C246.344 11.2586 247.151 11.7088 247.915 12.5993C248.635 11.7589 249.378 11.3032 250.045 11.1631H245.626ZM245.056 11.1631H242.047L242.047 11.1635H237.398C237.42 11.2303 237.509 11.338 237.643 11.4996L237.643 11.4996C238.301 12.2915 240.031 14.3754 240.031 19.2479V19.6625C240.031 24.535 238.301 26.6189 237.643 27.4109C237.509 27.5724 237.42 27.6802 237.398 27.7469H245.856C245.824 27.6801 245.69 27.5723 245.488 27.4106L245.488 27.4106C244.499 26.6184 241.897 24.5344 241.897 19.6625V14.7911L242.85 16.2215C245.753 20.6601 244.984 22.273 244.717 22.8334C244.688 22.8933 244.666 22.9412 244.654 22.9792H251.163C251.151 22.9419 251.129 22.895 251.101 22.8367L251.101 22.8367C250.839 22.2797 250.084 20.6746 253.049 16.2836L253.92 14.9984V19.6625C253.92 24.5356 251.331 26.6195 250.347 27.4112C250.146 27.5725 250.013 27.6802 249.981 27.7469H258.418C258.397 27.6802 258.307 27.5724 258.173 27.4109L258.173 27.4109C257.516 26.6189 255.785 24.535 255.785 19.6625V19.2479C255.785 14.3754 257.516 12.2915 258.173 11.4996L258.173 11.4995C258.307 11.338 258.397 11.2302 258.418 11.1635H253.341L253.341 11.1631H250.907C252.956 11.6438 253.477 15.7083 248.056 20.255C242.046 15.6453 242.814 11.4813 245.056 11.1631Z" fill="#0078D9"/>
<path d="M142.467 1.02651C145.842 0.075872 148.955 3.1888 148.004 6.5638L139.818 35.6259C138.888 38.9273 134.749 40.0081 132.324 37.5829L111.448 16.7067C109.023 14.2814 110.103 10.1424 113.405 9.21248L142.467 1.02651Z" fill="#FEB83B"/>
<path d="M156.234 28.1474C160.794 28.1474 164.214 25.5563 164.214 22.1152C164.214 14.7563 150.533 21.3275 150.533 17.3682C150.533 15.5855 153.249 14.3625 156.856 14.3625C160.131 14.3625 162.349 15.9379 163.468 17.2231V12.1652C162.079 11.3567 159.26 10.7349 156.856 10.7349C152.171 10.7349 148.667 13.2224 148.667 16.539C148.667 23.9808 162.349 17.2853 162.349 21.4726C162.349 22.8615 159.737 24.5198 156.234 24.5198C151.507 24.5198 149.911 22.5298 148.667 20.7263L149.082 26.5305C150.036 27.4633 152.855 28.1474 156.234 28.1474Z" fill="#0078D9"/>
<path d="M169.778 27.7328H176.908C176.784 27.339 174.276 25.5148 174.276 19.6484V14.2588C178.961 14.2588 180.93 16.7878 181.262 16.85L180.743 14.2381L180.121 11.1494H166.565L165.943 14.2381L165.424 16.85C165.756 16.7878 167.725 14.2588 172.41 14.2588V19.6484C172.41 25.5148 169.902 27.339 169.778 27.7328Z" fill="#0078D9"/>
<path d="M186.375 16.4147V14.4661H191.972C194.999 14.4661 196.014 15.5855 196.014 16.8293C196.014 18.2181 195.476 19.1924 191.765 19.1924C188.096 19.1924 186.375 18.4047 186.375 16.4147ZM181.877 27.7328H190.335C190.148 27.339 186.562 25.5977 186.375 20.0837C186.831 23.2139 190.563 27.7328 197.797 27.7328V21.2446C196.989 23.0066 195.952 24.9344 193.61 24.9344C189.443 24.9344 187.08 21.2653 186.666 19.835C187.287 20.6434 188.718 21.9286 191.765 21.9286C196.097 21.9286 197.88 19.8765 197.88 16.622C197.88 13.4919 195.476 11.1494 191.972 11.1494H181.877C182.002 11.5433 184.51 13.3675 184.51 19.2338V19.6484C184.51 25.5148 182.002 27.339 181.877 27.7328Z" fill="#0078D9"/>
<path d="M199.529 27.7328H214.185L215.367 22.2603C214.952 22.3018 212.589 24.8307 206.722 24.8307H204.028V20.1874H204.173C208.277 20.1874 209.562 22.1981 209.832 22.3018V16.5805C209.562 16.6841 208.277 18.6949 204.173 18.6949H204.028V14.0515H205.893C211.76 14.0515 214.123 16.5805 214.537 16.622L213.356 11.1494H199.529C199.654 11.5433 202.162 13.3675 202.162 19.2338V19.6484C202.162 25.5148 199.654 27.339 199.529 27.7328Z" fill="#0078D9"/>
<path d="M215.988 27.7328H223.243C223.098 27.4219 221.357 26.3647 222.082 23.3797C224.985 22.82 227.887 22.82 230.809 23.4004C231.514 26.3854 229.794 27.4219 229.649 27.7328H236.883C236.821 27.339 234.582 25.7428 232.012 20.4569L231.037 18.4254C228.467 13.1395 231.266 11.5433 231.452 11.1494H221.44C221.626 11.5433 224.404 13.1395 221.834 18.4254L220.859 20.4569C218.289 25.7428 216.05 27.339 215.988 27.7328ZM222.621 21.7628C222.787 21.4311 222.974 21.058 223.181 20.6642L226.436 14.7771L229.69 20.6642C229.897 21.058 230.084 21.4311 230.25 21.7835C227.7 21.3482 225.171 21.3482 222.621 21.7628Z" fill="#0078D9"/>
<path fill-rule="evenodd" clip-rule="evenodd" d="M135.779 16.8616V14.3704H140.378C142.356 14.3704 143.718 14.7898 144.362 15.5636H143.351V16.3614H142.004V17.1608H140.679V17.9583H139.348V19.1345C137.266 19.0288 135.827 18.5585 135.779 16.8616ZM131.62 26.6348H139.439C139.41 26.573 139.285 26.4733 139.098 26.3238C138.184 25.5915 135.779 23.665 135.779 19.1612V18.8546C136.124 20.2343 137.427 21.9015 140.838 21.9015C143.904 21.9015 146.127 19.4294 146.127 16.4017C146.127 13.4889 143.655 11.3043 140.378 11.3043H131.62C131.64 11.366 131.723 11.4656 131.847 11.6149C132.454 12.347 134.054 14.2735 134.054 18.7779V19.1612C134.054 23.6656 132.454 25.592 131.847 26.3241C131.723 26.4734 131.64 26.5731 131.62 26.6348ZM122.287 27.1151C126.426 27.1151 128.725 24.2023 128.725 18.9708V18.7792C128.725 14.2748 130.325 12.3483 130.933 11.6162L130.933 11.6162L130.933 11.6162C131.057 11.4669 131.14 11.3672 131.159 11.3056H123.36C123.389 11.3605 123.512 11.4493 123.696 11.5823C124.604 12.238 127.001 13.9695 127.001 18.0318V18.3959C127.001 18.4535 127 18.5111 126.998 18.5687L127.846 20.1262L126.749 20.0109C126.578 20.5599 126.324 21.0854 126.001 21.5584C125.193 22.4486 123.869 21.4383 123.258 20.7548C123.258 21.4263 124 22.1849 124.852 22.7761C124.126 23.3278 123.252 23.6658 122.287 23.6658C119.565 23.6658 117.572 20.9829 117.572 18.3959V18.0318C117.572 13.9705 119.982 12.2389 120.894 11.5828L120.894 11.5828C121.08 11.4495 121.203 11.3606 121.233 11.3056H113.414C113.434 11.3672 113.516 11.4669 113.64 11.6162C114.248 12.3483 115.848 14.2748 115.848 18.7792V18.9708C115.848 24.2023 118.147 27.1151 122.287 27.1151ZM125.388 17.1609C125.829 17.1609 126.186 16.8034 126.186 16.3624C126.186 15.9214 125.829 15.564 125.388 15.564C124.947 15.564 124.589 15.9214 124.589 16.3624C124.589 16.8034 124.947 17.1609 125.388 17.1609Z" fill="#0078D9"/>
</g>
<defs>
<clipPath id="clip0_186_2565">
<rect width="259" height="39" fill="white"/>
</clipPath>
</defs>
</svg>
