<svg width="98" height="98" viewBox="0 0 98 98" fill="none" xmlns="http://www.w3.org/2000/svg">
<circle cx="49" cy="49" r="49" fill="white"/>
<path fill-rule="evenodd" clip-rule="evenodd" d="M46 25H35.72C35.5455 25.3023 35.2949 25.5536 34.9932 25.7291C34.6914 25.9045 34.349 25.9979 34 26V32H34.5C35.163 32 35.7989 32.2634 36.2678 32.7322C36.7366 33.2011 37 33.837 37 34.5V38.5C37.0099 39.1069 36.7923 39.6955 36.39 40.15C37.7917 40.3924 39.1182 40.9565 40.2651 41.798C41.412 42.6395 42.3482 43.7356 43 45H21C21.6548 43.732 22.5956 42.6337 23.748 41.7919C24.9004 40.9501 26.2329 40.388 27.64 40.15C27.2268 39.7 26.9983 39.1109 27 38.5V34.5C27 33.837 27.2634 33.2011 27.7322 32.7322C28.2011 32.2634 28.837 32 29.5 32H30V26C29.4696 26 28.9609 25.7893 28.5858 25.4142C28.2107 25.0391 28 24.5304 28 24V22C28 21.4696 28.2107 20.9609 28.5858 20.5858C28.9609 20.2107 29.4696 20 30 20H34C34.349 20.0021 34.6914 20.0955 34.9932 20.2709C35.2949 20.4464 35.5455 20.6977 35.72 21H46L50.7 22.57C50.9487 22.6386 51.1807 22.7571 51.3821 22.9182C51.5835 23.0794 51.7499 23.2799 51.8713 23.5075C51.9927 23.7351 52.0665 23.985 52.0882 24.242C52.1098 24.499 52.0789 24.7578 51.9974 25.0025C51.9158 25.2472 51.7853 25.4727 51.6137 25.6653C51.4422 25.8579 51.2332 26.0136 50.9995 26.1228C50.7659 26.2321 50.5124 26.2926 50.2546 26.3007C49.9968 26.3088 49.7401 26.2643 49.5 26.17L46 25ZM51.0001 28L53.6801 33.64C53.954 34.1792 54.0585 34.7885 53.9799 35.3881C53.9014 35.9877 53.6435 36.5495 53.2401 37C52.9587 37.3159 52.6136 37.5687 52.2276 37.7418C51.8415 37.9149 51.4232 38.0044 51.0001 38.0044C50.577 38.0044 50.1587 37.9149 49.7727 37.7418C49.3866 37.5687 49.0415 37.3159 48.7601 37C48.3567 36.5495 48.0988 35.9877 48.0203 35.3881C47.9418 34.7885 48.0463 34.1792 48.3201 33.64L51.0001 28ZM48.3201 45.64C48.0463 46.1792 47.9418 46.7885 48.0203 47.3881C48.0988 47.9877 48.3567 48.5495 48.7601 49C49.0415 49.3159 49.3866 49.5687 49.7727 49.7418C50.1587 49.9149 50.577 50.0044 51.0001 50.0044C51.4232 50.0044 51.8415 49.9149 52.2276 49.7418C52.6136 49.5687 52.9587 49.3159 53.2401 49C53.6415 48.5504 53.8981 47.9904 53.9766 47.3928C54.055 46.7953 53.9517 46.188 53.6801 45.65L51.0001 40L48.3201 45.64ZM52 68V73C52 73.2652 51.8946 73.5196 51.7071 73.7071C51.5196 73.8946 51.2652 74 51 74H49V77C49 77.2652 48.8946 77.5196 48.7071 77.7071C48.5196 77.8946 48.2652 78 48 78C47.7348 78 47.4804 77.8946 47.2929 77.7071C47.1054 77.5196 47 77.2652 47 77V73C47 72.7348 47.1054 72.4804 47.2929 72.2929C47.4804 72.1054 47.7348 72 48 72H50V68C50 67.7348 50.1054 67.4804 50.2929 67.2929C50.4804 67.1054 50.7348 67 51 67C51.2652 67 51.5196 67.1054 51.7071 67.2929C51.8946 67.4804 52 67.7348 52 68ZM59 69C58.7348 69 58.4804 69.1054 58.2929 69.2929C58.1054 69.4804 58 69.7348 58 70V72H56C55.7348 72 55.4804 72.1054 55.2929 72.2929C55.1054 72.4804 55 72.7348 55 73V76C55 76.2652 55.1054 76.5196 55.2929 76.7071C55.4804 76.8946 55.7348 77 56 77C56.2652 77 56.5196 76.8946 56.7071 76.7071C56.8946 76.5196 57 76.2652 57 76V74H59C59.2652 74 59.5196 73.8946 59.7071 73.7071C59.8946 73.5196 60 73.2652 60 73V70C60 69.7348 59.8946 69.4804 59.7071 69.2929C59.5196 69.1054 59.2652 69 59 69ZM66.2929 67.2929C66.4804 67.1054 66.7348 67 67 67C67.2652 67 67.5196 67.1054 67.7071 67.2929C67.8946 67.4804 68 67.7348 68 68V73C68 73.2652 67.8946 73.5196 67.7071 73.7071C67.5196 73.8946 67.2652 74 67 74H65V77C65 77.2652 64.8946 77.5196 64.7071 77.7071C64.5196 77.8946 64.2652 78 64 78C63.7348 78 63.4804 77.8946 63.2929 77.7071C63.1054 77.5196 63 77.2652 63 77V73C63 72.7348 63.1054 72.4804 63.2929 72.2929C63.4804 72.1054 63.7348 72 64 72H66V68C66 67.7348 66.1054 67.4804 66.2929 67.2929ZM43.72 71C43.9045 70.2778 43.9985 69.5354 44 68.79V59.62L41.2 56.82C40.8177 56.4524 40.5135 56.0113 40.3058 55.5233C40.098 55.0353 39.9909 54.5104 39.9909 53.98C39.9909 53.4496 40.098 52.9247 40.3058 52.4367C40.5135 51.9487 40.8177 51.5076 41.2 51.14C41.9535 50.4163 42.9553 50.0085 44 50V49.19C43.9969 48.4513 43.9029 47.7157 43.72 47H20.28C20.0955 47.7222 20.0015 48.4646 20 49.21V68.79C20.0015 69.5354 20.0955 70.2778 20.28 71H43.72ZM26 58.38C26.0026 57.7496 26.2542 57.1458 26.7 56.7C27.1458 56.2542 27.7496 56.0026 28.38 56H29V55.38C29.0026 54.7496 29.2542 54.1458 29.7 53.7C30.1458 53.2542 30.7496 53.0026 31.38 53H32.63C33.2595 53.0026 33.8623 53.2546 34.3065 53.7006C34.7506 54.1467 35 54.7505 35 55.38V56H35.63C36.2595 56.0026 36.8623 56.2546 37.3065 56.7006C37.7506 57.1467 38 57.7505 38 58.38V59.63C37.9974 60.2578 37.7468 60.859 37.3029 61.3029C36.859 61.7468 36.2578 61.9974 35.63 62H35V62.63C34.9974 63.2578 34.7468 63.859 34.3029 64.3029C33.859 64.7468 33.2578 64.9974 32.63 65H31.38C30.7505 65 30.1467 64.7506 29.7006 64.3065C29.2546 63.8623 29.0026 63.2595 29 62.63V62H28.38C27.7505 62 27.1467 61.7506 26.7006 61.3065C26.2546 60.8623 26.0026 60.2595 26 59.63V58.38ZM30 60H28.38C28.2809 60 28.1858 59.9614 28.1148 59.8923C28.0438 59.8231 28.0026 59.729 28 59.63V58.38C28 58.2792 28.04 58.1826 28.1113 58.1113C28.1826 58.04 28.2792 58 28.38 58H30C30.2652 58 30.5196 57.8946 30.7071 57.7071C30.8946 57.5196 31 57.2652 31 57V55.38C31 55.3301 31.0098 55.2807 31.0289 55.2346C31.048 55.1885 31.076 55.1466 31.1113 55.1113C31.1466 55.076 31.1885 55.048 31.2346 55.0289C31.2807 55.0098 31.3301 55 31.38 55H32.63C32.729 55.0026 32.8231 55.0438 32.8923 55.1148C32.9614 55.1858 33 55.2809 33 55.38V57C33 57.2652 33.1054 57.5196 33.2929 57.7071C33.4804 57.8946 33.7348 58 34 58H35.63C35.729 58.0026 35.8231 58.0438 35.8923 58.1148C35.9614 58.1858 36 58.2809 36 58.38V59.63C35.9975 59.7273 35.9577 59.82 35.8888 59.8888C35.82 59.9577 35.7273 59.9975 35.63 60H34C33.7348 60 33.4804 60.1054 33.2929 60.2929C33.1054 60.4804 33 60.7348 33 61V62.63C32.9975 62.7273 32.9577 62.82 32.8888 62.8888C32.82 62.9577 32.7273 62.9975 32.63 63H31.38C31.2809 63 31.1858 62.9614 31.1148 62.8923C31.0438 62.8231 31.0026 62.729 31 62.63V61C31 60.7348 30.8946 60.4804 30.7071 60.2929C30.5196 60.1054 30.2652 60 30 60ZM43 73H21C21.7721 74.5048 22.9441 75.7676 24.3872 76.6497C25.8303 77.5318 27.4887 77.999 29.18 78H34.76C36.4615 78.0101 38.1325 77.5481 39.5872 76.6654C41.0419 75.7827 42.2232 74.5139 43 73ZM71.48 52H76.48C76.8763 51.9999 77.257 52.1545 77.5409 52.431C77.8248 52.7074 77.9896 53.0838 78 53.48V64.48C78.0001 64.8763 77.8455 65.257 77.569 65.5409C77.2926 65.8248 76.9162 65.9896 76.52 66H71.52C71.1169 66 70.7303 65.8399 70.4452 65.5548C70.1602 65.2697 70 64.8831 70 64.48V63.54L61 66L48.22 61L42.61 55.44C42.4241 55.2543 42.2765 55.0337 42.1759 54.7909C42.0752 54.5481 42.0234 54.2878 42.0234 54.025C42.0234 53.7622 42.0752 53.5019 42.1759 53.2591C42.2765 53.0163 42.4241 52.7957 42.61 52.61C43.0096 52.2389 43.5347 52.0326 44.08 52.0326C44.6253 52.0326 45.1505 52.2389 45.55 52.61L49.2 56C49.0433 56.4071 48.9808 56.8444 49.0172 57.2791C49.0536 57.7138 49.1878 58.1346 49.41 58.51C49.6937 58.9675 50.0899 59.3447 50.5608 59.6056C51.0318 59.8664 51.5617 60.0022 52.1 60H60C60.2652 60 60.5196 59.8946 60.7071 59.7071C60.8947 59.5196 61 59.2652 61 59C61 58.7348 60.8947 58.4804 60.7071 58.2929C60.5196 58.1054 60.2652 58 60 58H52.12C51.9218 58.0054 51.7255 57.9594 51.5503 57.8665C51.3751 57.7737 51.2269 57.6371 51.12 57.47C51.042 57.3256 51.0008 57.1641 51 57C51.0125 56.8544 51.0539 56.7127 51.1218 56.5833C51.1896 56.4539 51.2826 56.3393 51.3952 56.2462C51.5079 56.1531 51.638 56.0834 51.7778 56.0411C51.9177 55.9988 52.0647 55.9849 52.21 56H61.3C61.4553 55.9977 61.6084 55.9636 61.75 55.9C62.9963 55.2962 64.3652 54.9883 65.75 55C67.1744 55.0237 68.5951 55.1541 70 55.39V53.52C69.9999 53.1237 70.1545 52.743 70.431 52.4591C70.7074 52.1752 71.0839 52.0104 71.48 52ZM70.9999 35.57L74.6099 32C72.8772 30.6851 70.7268 30.0421 68.5566 30.1902C66.3865 30.3382 64.3433 31.2673 62.8052 32.8054C61.2671 34.3435 60.3381 36.3866 60.1901 38.5568C60.042 40.7269 60.685 42.8773 61.9999 44.61L65.5699 41C65.3835 40.6869 65.2389 40.3507 65.1399 40H63.9999C63.7347 40 63.4804 39.8947 63.2928 39.7072C63.1053 39.5196 62.9999 39.2653 62.9999 39C62.9999 38.7348 63.1053 38.4805 63.2928 38.2929C63.4804 38.1054 63.7347 38 63.9999 38H65.1399C65.2389 37.6494 65.3835 37.3132 65.5699 37L64.7599 36.19C64.5961 35.9987 64.5105 35.7527 64.5202 35.501C64.5299 35.2493 64.6343 35.0106 64.8124 34.8325C64.9905 34.6544 65.2292 34.5501 65.4809 34.5403C65.7325 34.5306 65.9786 34.6162 66.1699 34.78L66.9799 35.59C67.293 35.4036 67.6292 35.2591 67.9799 35.16V34C67.9799 33.7348 68.0853 33.4805 68.2728 33.2929C68.4604 33.1054 68.7147 33 68.9799 33C69.2451 33 69.4995 33.1054 69.687 33.2929C69.8746 33.4805 69.9799 33.7348 69.9799 34V35.14C70.3375 35.2374 70.6805 35.382 70.9999 35.57ZM72.8599 38C72.7609 37.6493 72.6163 37.3131 72.4299 37L75.9999 33.39C77.3149 35.1228 77.9578 37.2731 77.8097 39.4433C77.6617 41.6135 76.7327 43.6566 75.1946 45.1947C73.6565 46.7328 71.6133 47.6618 69.4432 47.8099C67.273 47.9579 65.1226 47.315 63.3899 46L66.9999 42.43C67.313 42.6164 67.6492 42.761 67.9999 42.86V44C67.9999 44.2652 68.1052 44.5196 68.2928 44.7071C68.4803 44.8947 68.7347 45 68.9999 45C69.2651 45 69.5195 44.8947 69.707 44.7071C69.8945 44.5196 69.9999 44.2652 69.9999 44V42.86C70.3506 42.761 70.6868 42.6164 70.9999 42.43L71.8299 43.22C72.0173 43.4063 72.2707 43.5108 72.5349 43.5108C72.7991 43.5108 73.0525 43.4063 73.2399 43.22C73.4261 43.0327 73.5307 42.7792 73.5307 42.515C73.5307 42.2508 73.4261 41.9974 73.2399 41.81L72.4299 41C72.6163 40.6869 72.7609 40.3507 72.8599 40H73.9999C74.2651 40 74.5195 39.8947 74.707 39.7071C74.8945 39.5196 74.9999 39.2652 74.9999 39C74.9999 38.7348 74.8945 38.4804 74.707 38.2929C74.5195 38.1054 74.2651 38 73.9999 38H72.8599Z" fill="#AFC8DA"/>
</svg>
