<svg width="175" height="175" viewBox="0 0 175 175" fill="none" xmlns="http://www.w3.org/2000/svg">
<circle cx="87.5" cy="87.5" r="87" stroke="#C4C4C4"/>
<path fill-rule="evenodd" clip-rule="evenodd" d="M136.333 41.3333H129.667H124.03L122.823 38.9217C122.542 38.3567 121.965 38 121.333 38H101.333C98.5767 38 96.3333 40.2433 96.3333 43C96.3333 43.6583 96.4683 44.2833 96.7 44.86C94.575 45.435 93 47.3617 93 49.6667C93 50.9517 93.5017 52.1133 94.3 53C93.5 53.8867 93 55.0483 93 56.3333C93 56.92 93.12 57.4767 93.3067 58H81.3333C78.5767 58 76.3333 60.2433 76.3333 63C76.3333 65.7567 78.5767 68 81.3333 68H106.333V81.3333C106.333 84.09 108.577 86.3333 111.333 86.3333H111.723C114.238 86.3333 116.372 84.45 116.685 81.9533L117.928 72.0067L123.8 64.6667H129.667H136.333C137.253 64.6667 138 63.9217 138 63V43C138 42.0783 137.253 41.3333 136.333 41.3333ZM123 61.3333C122.493 61.3333 122.015 61.5633 121.698 61.9583L115.032 70.2917C114.84 70.5333 114.718 70.82 114.68 71.1267L113.378 81.54C113.275 82.3717 112.563 83 111.723 83H111.333C110.415 83 109.667 82.2533 109.667 81.3333V66.3333C109.667 65.4117 108.92 64.6667 108 64.6667H81.3333C80.415 64.6667 79.6667 63.92 79.6667 63C79.6667 62.08 80.415 61.3333 81.3333 61.3333H98H103V58H98C97.0817 58 96.3333 57.2533 96.3333 56.3333C96.3333 55.4133 97.0817 54.6667 98 54.6667H103V51.3333H98C97.0817 51.3333 96.3333 50.5867 96.3333 49.6667C96.3333 48.7467 97.0817 48 98 48H101.333H103V44.6667H101.333C100.415 44.6667 99.6667 43.92 99.6667 43C99.6667 42.08 100.415 41.3333 101.333 41.3333H120.303L121.51 43.745C121.792 44.31 122.368 44.6667 123 44.6667H128V61.3333H123ZM134.667 61.3333H131.333V44.6667H134.667V61.3333ZM83 126.333C83 125.048 82.4983 123.887 81.7 123C82.5 122.113 83 120.952 83 119.667C83 119.08 82.88 118.523 82.6933 118H94.6667C97.4233 118 99.6667 115.757 99.6667 113C99.6667 110.243 97.4233 108 94.6667 108H69.6667V94.6667C69.6667 91.91 67.4233 89.6667 64.6667 89.6667H64.2767C61.7617 89.6667 59.6283 91.55 59.315 94.0467L58.0717 103.993L52.2 111.333H46.3333H39.6667C38.7467 111.333 38 112.078 38 113V133C38 133.922 38.7467 134.667 39.6667 134.667H46.3333H51.97L53.1767 137.078C53.4583 137.643 54.035 138 54.6667 138H74.6667C77.4233 138 79.6667 135.757 79.6667 133C79.6667 132.342 79.5317 131.717 79.3 131.14C81.425 130.563 83 128.638 83 126.333ZM41.3333 114.667H44.6667V131.333H41.3333V114.667ZM78 128H74.6667H73V131.333H74.6667C75.585 131.333 76.3333 132.08 76.3333 133C76.3333 133.92 75.585 134.667 74.6667 134.667H55.6967L54.49 132.255C54.2083 131.69 53.6317 131.333 53 131.333H48V114.667H53C53.5067 114.667 53.985 114.437 54.3017 114.042L60.9683 105.708C61.16 105.467 61.2817 105.18 61.32 104.873L62.6217 94.46C62.725 93.6283 63.4367 93 64.2767 93H64.6667C65.585 93 66.3333 93.7467 66.3333 94.6667V109.667C66.3333 110.588 67.08 111.333 68 111.333H94.6667C95.585 111.333 96.3333 112.08 96.3333 113C96.3333 113.92 95.585 114.667 94.6667 114.667H78H73V118H78C78.9183 118 79.6667 118.747 79.6667 119.667C79.6667 120.587 78.9183 121.333 78 121.333H73V124.667H78C78.9183 124.667 79.6667 125.413 79.6667 126.333C79.6667 127.253 78.9183 128 78 128ZM71.6171 92.2617C71.2388 91.7 71.2388 90.965 71.6171 90.4033C71.9121 89.9667 78.9321 79.6667 88.0004 79.6667C97.0687 79.6667 104.089 89.9667 104.384 90.405C104.762 90.9667 104.762 91.7017 104.384 92.2633C104.089 92.7 97.0687 103 88.0004 103C78.9321 103 71.9121 92.7 71.6171 92.2617ZM100.932 91.335C99.1104 88.9867 93.8871 83 88.0004 83C82.0954 83 76.8871 88.9817 75.0687 91.3317C76.8904 93.68 82.1137 99.6667 88.0004 99.6667C93.9054 99.6667 99.1137 93.685 100.932 91.335ZM88 96.3333C90.7567 96.3333 93 94.09 93 91.3333C93 88.5767 90.7567 86.3333 88 86.3333C85.2433 86.3333 83 88.5767 83 91.3333C83 94.09 85.2433 96.3333 88 96.3333ZM88 89.6667C88.9183 89.6667 89.6667 90.4133 89.6667 91.3333C89.6667 92.2533 88.9183 93 88 93C87.0817 93 86.3333 92.2533 86.3333 91.3333C86.3333 90.4133 87.0817 89.6667 88 89.6667ZM86.3333 71.3333H89.6667V76.3333H86.3333V71.3333ZM96.8211 73.4886L93.4883 76.8214L95.8453 79.1784L99.1781 75.8456L96.8211 73.4886ZM100.154 81.8214L103.487 78.4886L105.844 80.8456L102.511 84.1784L100.154 81.8214ZM79.1786 73.4885L76.8216 75.8455L80.1544 79.1783L82.5114 76.8213L79.1786 73.4885ZM70.1549 80.8455L72.5119 78.4885L75.8447 81.8213L73.4877 84.1783L70.1549 80.8455ZM93 41.3333H43C42.08 41.3333 41.3333 42.0783 41.3333 43V108H44.6667V44.6667H93V41.3333ZM83 131.333H131.333V68H134.667V133C134.667 133.922 133.92 134.667 133 134.667H83V131.333ZM86.3333 124.667H123C123.92 124.667 124.667 123.922 124.667 123V71.3333H121.333V121.333H86.3333V124.667ZM53 51.3333H89.6667V54.6667H54.6667V104.667H51.3333V53C51.3333 52.0783 52.08 51.3333 53 51.3333Z" fill="#0078D9"/>
</svg>
