<svg width="175" height="175" viewBox="0 0 175 175" fill="none" xmlns="http://www.w3.org/2000/svg">
<circle cx="87.5" cy="87.5" r="87" stroke="#C4C4C4"/>
<path fill-rule="evenodd" clip-rule="evenodd" d="M88 38C60.43 38 38 60.43 38 88C38 89.16 38.0383 90.3217 38.1167 91.4483L41.4433 91.2167C41.37 90.1683 41.3333 89.0833 41.3333 88C41.3333 62.2683 62.2683 41.3333 88 41.3333C113.732 41.3333 134.667 62.2683 134.667 88C134.667 113.732 113.732 134.667 88 134.667C87.46 134.667 86.9233 134.657 86.3867 134.64L86.28 137.97C86.8517 137.99 87.4233 138 88 138C115.57 138 138 115.57 138 88C138 60.43 115.57 38 88 38ZM39.7528 124.14L38.0861 129.14C37.8145 129.953 38.2045 130.842 38.9895 131.19L53.9895 137.857C54.2028 137.952 54.4328 138 54.6661 138C54.7278 138 54.7878 137.997 54.8495 137.99L69.8495 136.323C70.0211 136.303 70.1861 136.258 70.3428 136.19L100.343 122.857C100.793 122.657 101.129 122.268 101.266 121.797C101.404 121.325 101.324 120.817 101.053 120.408L97.7195 115.408C97.3495 114.853 96.6928 114.575 96.0244 114.695L84.6661 116.825V111.333C84.6661 110.953 84.5378 110.588 84.3011 110.292L77.9995 102.415V97.725L91.9811 95.1817C94.5028 94.7233 96.3328 92.53 96.3328 89.9683C96.3328 87.045 93.9545 84.6667 91.0311 84.6667H79.6661C79.4661 84.6667 79.2678 84.7017 79.0795 84.7717L77.7261 85.28C77.8995 84.5467 77.9995 83.785 77.9995 83C77.9995 77.485 73.5145 73 67.9995 73C62.4845 73 57.9995 77.485 57.9995 83C57.9995 86.275 59.5895 89.1783 62.0294 91.0033L55.8061 93.0867C55.4728 93.1967 55.1828 93.4117 54.9778 93.6983L48.3295 103.007C46.8778 105.04 47.1061 107.795 48.8711 109.562C49.9528 110.643 51.4595 111.187 52.9678 111.027C54.4911 110.877 55.8511 110.06 56.7011 108.787L60.7361 102.733L61.7845 102.385L59.7861 107.382C59.7395 107.498 59.7061 107.622 59.6861 107.747L57.6461 121.005L41.1261 123.013C40.4895 123.093 39.9545 123.53 39.7528 124.14ZM67.9995 76.3333C71.6761 76.3333 74.6661 79.3233 74.6661 83C74.6661 84.6133 74.0678 86.0733 73.1111 87.2267C73.107 87.2308 73.1024 87.2346 73.0978 87.2383L73.091 87.244C73.0887 87.2459 73.0865 87.2479 73.0845 87.25C71.5611 89.07 69.1661 89.8983 66.9445 89.555C66.933 89.5531 66.9222 89.5534 66.9112 89.5536C66.903 89.5538 66.8947 89.554 66.8861 89.5533C63.7411 89.0217 61.3328 86.2967 61.3328 83C61.3328 79.3233 64.3228 76.3333 67.9995 76.3333ZM65.8795 98.5233C65.4328 98.05 64.7528 97.8767 64.1395 98.085L59.1395 99.7517C58.7878 99.8683 58.4845 100.1 58.2795 100.408L53.9278 106.937C53.6345 107.375 53.1661 107.657 52.6411 107.708C52.1211 107.77 51.6028 107.578 51.2278 107.203C50.6195 106.595 50.5411 105.643 51.0411 104.943L57.3761 96.0767L66.8295 92.925C67.2128 92.97 67.6028 93 67.9995 93C70.9245 93 73.5528 91.73 75.3828 89.72L79.9695 88H91.0328C92.1178 88 92.9995 88.8817 92.9995 89.9683C92.9995 90.9183 92.3211 91.7333 91.3844 91.9033L76.0345 94.695C75.2428 94.8383 74.6661 95.5283 74.6661 96.3333V103C74.6661 103.38 74.7945 103.745 75.0311 104.042L81.3328 111.918V118.833V119.575C81.3328 120.545 80.5445 121.333 79.5745 121.333H79.2345C79.0211 121.333 78.8161 121.295 78.6261 121.225C78.0645 121.018 77.6395 120.528 77.5161 119.912C77.5145 119.903 77.5111 119.896 77.5078 119.888C77.5045 119.881 77.5011 119.873 77.4995 119.865L76.3095 112.727C76.2345 112.272 75.9745 111.868 75.5895 111.613L70.5895 108.28C70.1361 107.975 69.5661 107.917 69.0645 108.112C68.5578 108.307 68.1795 108.737 68.0495 109.262L63.6978 126.667C63.5011 127.453 62.7995 128 61.9928 128C61.4728 128 60.9978 127.782 60.6578 127.387C60.3178 126.992 60.1744 126.49 60.2544 125.975L60.7495 122.76V122.758L62.9511 108.44L66.2145 100.283C66.4545 99.6833 66.3245 98.9967 65.8795 98.5233ZM73.9495 118.837L69.4828 119.677L68.8645 119.745L70.7094 112.365L73.1411 113.987L73.9495 118.837ZM42.5811 126.19L54.8495 124.657L57.1228 124.403L56.9595 125.468C56.7328 126.938 57.1595 128.428 58.1278 129.558C59.0961 130.685 60.5045 131.333 61.9928 131.333C62.5778 131.333 63.1444 131.233 63.6728 131.05C65.2578 130.497 66.5061 129.18 66.9311 127.478L68.0045 123.195L69.9761 122.972L74.7978 122.068C74.7978 122.069 74.7981 122.069 74.7985 122.07C74.7989 122.07 74.7995 122.071 74.7995 122.072C74.8288 122.123 74.8619 122.172 74.895 122.22L74.8951 122.221C74.9163 122.252 74.9376 122.283 74.9578 122.315C75.0461 122.453 75.1378 122.59 75.2378 122.718C75.3128 122.813 75.3911 122.903 75.4728 122.992C75.5695 123.098 75.6711 123.2 75.7761 123.298L75.8266 123.345C75.8957 123.409 75.964 123.473 76.0378 123.533C76.1978 123.662 76.3661 123.78 76.5395 123.888C76.6328 123.947 76.7295 124 76.8278 124.052C76.9961 124.143 77.1695 124.227 77.3478 124.298C77.4394 124.335 77.5311 124.365 77.6261 124.395C77.7994 124.453 77.9761 124.5 78.1561 124.54C78.1819 124.545 78.2075 124.551 78.2331 124.557L78.2334 124.557L78.2337 124.557L78.2339 124.557L78.2341 124.557C78.2942 124.571 78.3539 124.584 78.4145 124.593C78.6811 124.637 78.9545 124.667 79.2345 124.667H79.5745C79.9128 124.667 80.2411 124.63 80.5611 124.567C80.6275 124.553 80.6908 124.533 80.754 124.513L80.7544 124.513C80.7942 124.5 80.834 124.488 80.8745 124.477C81.0811 124.422 81.2878 124.367 81.4845 124.287C81.5611 124.255 81.6341 124.217 81.7068 124.179L81.7071 124.178C81.7272 124.168 81.7473 124.157 81.7675 124.147C81.7853 124.138 81.8032 124.129 81.8211 124.12C81.9928 124.035 82.1628 123.95 82.3228 123.847C82.4049 123.794 82.4817 123.734 82.5583 123.674C82.5858 123.653 82.6134 123.631 82.6411 123.61C82.7861 123.5 82.9278 123.388 83.0595 123.265C83.1484 123.181 83.2305 123.089 83.3132 122.997L83.3134 122.997L83.3395 122.968C83.4595 122.837 83.5745 122.702 83.6795 122.557C83.7611 122.445 83.8345 122.33 83.9061 122.212C83.9995 122.06 84.0845 121.905 84.1611 121.743C84.2211 121.617 84.2745 121.492 84.3245 121.36C84.3895 121.19 84.4411 121.017 84.4861 120.838C84.5211 120.703 84.5545 120.568 84.5778 120.428C84.583 120.397 84.591 120.367 84.5989 120.337C84.6086 120.3 84.6182 120.263 84.6228 120.225L95.5545 118.175L97.1811 120.615L69.2245 133.04L54.9311 134.628L41.7245 128.76L42.5811 126.19ZM101.082 113.882C101.914 112.55 103.269 109.782 102.996 106.208C102.842 104.182 102.179 102.19 101.077 100.443L98.2589 102.223C99.0706 103.508 99.5606 104.975 99.6739 106.46C99.8739 109.085 98.8722 111.132 98.2539 112.118L101.082 113.882ZM103.583 115.065C105.708 113.252 108.262 111.975 110.972 111.372C113.385 110.838 115.94 110.838 118.358 111.372L117.638 114.627C115.688 114.193 113.633 114.193 111.693 114.627C108.942 115.238 106.942 116.582 105.748 117.6L103.583 115.065ZM46.3333 94.6667C46.3333 74.4483 62.7817 58 83 58C103.218 58 119.667 74.4483 119.667 94.6667C119.667 100.163 118.48 105.45 116.138 110.38L113.127 108.952C115.255 104.47 116.333 99.6633 116.333 94.6667C116.333 76.2867 101.38 61.3333 83 61.3333C64.62 61.3333 49.6667 76.2867 49.6667 94.6667C49.6667 95.7183 49.7167 96.7867 49.8167 97.845L46.4967 98.155C46.3883 96.9933 46.3333 95.82 46.3333 94.6667Z" fill="#0078D9"/>
</svg>
