<svg width="98" height="98" viewBox="0 0 98 98" fill="none" xmlns="http://www.w3.org/2000/svg">
<circle cx="49" cy="49" r="49" fill="white"/>
<path d="M78 52.85V45.15L69.31 43.7C68.8281 41.8344 68.084 40.0466 67.1 38.39L72.23 31.21L66.79 25.77L59.61 30.9C57.9534 29.916 56.1656 29.1719 54.3 28.69L52.85 20H45.15L43.7 28.69C41.8344 29.1719 40.0466 29.916 38.39 30.9L31.21 25.77L25.77 31.21L30.9 38.39C29.916 40.0466 29.1719 41.8344 28.69 43.7L20 45.15V52.85L28.69 54.3C29.1719 56.1656 29.916 57.9534 30.9 59.61L25.77 66.79L31.21 72.23L38.39 67.1C40.0466 68.084 41.8344 68.8281 43.7 69.31L45.15 78H52.85L54.3 69.31C56.1656 68.8281 57.9534 68.084 59.61 67.1L66.79 72.23L72.23 66.79L67.1 59.61C68.084 57.9534 68.8281 56.1656 69.31 54.3L78 52.85ZM49 64C46.0333 64 43.1332 63.1203 40.6664 61.472C38.1997 59.8238 36.2771 57.4811 35.1418 54.7402C34.0065 51.9994 33.7094 48.9834 34.2882 46.0736C34.867 43.1639 36.2956 40.4912 38.3934 38.3934C40.4912 36.2956 43.1639 34.867 46.0736 34.2882C48.9834 33.7094 51.9994 34.0065 54.7402 35.1418C57.4811 36.2771 59.8238 38.1997 61.472 40.6664C63.1203 43.1332 64 46.0333 64 49C64 52.9782 62.4196 56.7936 59.6066 59.6066C56.7936 62.4196 52.9782 64 49 64ZM51 47H56V51H51V56H47V51H42V47H47V42H51V47ZM49 36C46.4288 36 43.9154 36.7624 41.7776 38.1909C39.6397 39.6194 37.9735 41.6497 36.9896 44.0251C36.0056 46.4006 35.7482 49.0144 36.2498 51.5362C36.7514 54.0579 37.9895 56.3743 39.8076 58.1924C41.6257 60.0105 43.9421 61.2486 46.4638 61.7502C48.9856 62.2518 51.5994 61.9944 53.9749 61.0104C56.3503 60.0265 58.3806 58.3603 59.8091 56.2224C61.2376 54.0846 62 51.5712 62 49C62 45.5522 60.6304 42.2456 58.1924 39.8076C55.7544 37.3696 52.4478 36 49 36V36ZM58 53H53V58H45V53H40V45H45V40H53V45H58V53Z" fill="#AFC8DA"/>
</svg>
